<?xml version="1.0" encoding="iso-8859-1"?>
<!-- Generator: Adobe Illustrator 19.0.0, SVG Export Plug-In . SVG Version: 6.00 Build 0)  -->
<svg version="1.1" id="Capa_1" fill="#4b4d4f" xmlns="http://www.w3.org/2000/svg" xmlns:xlink="http://www.w3.org/1999/xlink" x="0px" y="0px"
	 viewBox="0 0 297.1 297.1" style="enable-background:new 0 0 297.1 297.1;" xml:space="preserve">
<g>
	<path d="M254.281,229.1h-47.781c-16.742,11-36.346,15.918-57.283,15.918s-40.54-4.918-57.283-15.918H43.239
		c-14.223,0-26.355,16.891-26.355,31.118V297.1h263v-36.882C279.883,245.99,268.5,229.1,254.281,229.1z"/>
	<path d="M149.216,230.494c53.065,0,96.235-43.171,96.235-96.234c0-5.157-0.413-10.22-1.198-15.16h-16.37v3.5
		c0,13.785-10.382,25.5-24.167,25.5h-21c-13.785,0-25.833-11.715-25.833-25.5v-3.5h-15v3.5c0,13.785-10.382,25.5-24.167,25.5h-21
		c-13.785,0-25.833-11.715-25.833-25.5v-3.5H54.18c-0.785,4.94-1.198,10.003-1.198,15.16
		C52.982,187.323,96.153,230.494,149.216,230.494z M165.245,198.533c14.196-3.54,27.026-11.884,36.127-23.492
		c2.557-3.26,7.27-3.831,10.529-1.275c3.26,2.556,3.831,7.27,1.275,10.529c-11.15,14.223-26.883,24.448-44.301,28.793
		c-0.609,0.151-1.221,0.225-1.821,0.225c-3.362,0-6.421-2.277-7.271-5.686C158.781,203.606,161.226,199.536,165.245,198.533z"/>
	<path d="M58.114,69.1H35.716c-9.649,0-17.5,7.851-17.5,17.5s7.851,17.5,17.5,17.5h227c9.649,0,17.5-7.851,17.5-17.5
		s-7.851-17.5-17.5-17.5h-22.398l-8.718-15l-22.896-39.393C203.589,5.91,193.11,0,182.628,0c-1.385,0-2.766,0.105-4.103,0.313
		l-22.063,3.429c-1.808,0.281-4.6,0.449-7.469,0.449c-2.938,0-5.796-0.175-7.647-0.467l-21.405-3.382
		c-1.359-0.214-2.761-0.323-4.167-0.323c-10.471,0-20.938,5.901-26.045,14.686L66.831,54.1L58.114,69.1z"/>
</g>
<g>
</g>
<g>
</g>
<g>
</g>
<g>
</g>
<g>
</g>
<g>
</g>
<g>
</g>
<g>
</g>
<g>
</g>
<g>
</g>
<g>
</g>
<g>
</g>
<g>
</g>
<g>
</g>
<g>
</g>
</svg>
